<?xml version="1.0" standalone="no"?>
<!DOCTYPE svg PUBLIC "-//W3C//DTD SVG 20010904//EN"
 "http://www.w3.org/TR/2001/REC-SVG-20010904/DTD/svg10.dtd">
<svg version="1.0" xmlns="http://www.w3.org/2000/svg"
 width="601.000000pt" height="415.000000pt" viewBox="0 0 601.000000 415.000000"
 preserveAspectRatio="xMidYMid meet">

<g transform="translate(0.000000,415.000000) scale(0.100000,-0.100000)"
fill="#000000" stroke="none">
<path d="M1630 3845 c-9 -10 -10 -22 -4 -34 5 -10 381 -417 837 -905 455 -487
827 -889 827 -893 0 -5 -53 -64 -117 -133 -64 -69 -308 -329 -542 -579 -234
-250 -506 -540 -603 -645 l-178 -190 0 -88 0 -88 1263 841 c694 463 1268 848
1275 857 7 9 11 23 10 31 -3 15 -28 32 -1248 849 -481 322 -1011 677 -1177
789 -167 112 -309 203 -317 203 -7 0 -19 -7 -26 -15z"/>
</g>
</svg>
